<?xml version="1.0" encoding="UTF-8" standalone="no"?>
<!-- Created with Inkscape (http://www.inkscape.org/) -->

<svg
   version="1.1"
   id="svg1655"
   xml:space="preserve"
   width="756.97736"
   height="273.85999"
   viewBox="0 0 756.97736 273.85999"
   sodipodi:docname="logo-la-belle-idee.ai"
   inkscape:version="1.1.2 (0a00cf5339, 2022-02-04)"
   xmlns:inkscape="http://www.inkscape.org/namespaces/inkscape"
   xmlns:sodipodi="http://sodipodi.sourceforge.net/DTD/sodipodi-0.dtd"
   xmlns="http://www.w3.org/2000/svg"
   xmlns:svg="http://www.w3.org/2000/svg"><defs
     id="defs1659"><clipPath
       clipPathUnits="userSpaceOnUse"
       id="clipPath1669"><path
         d="M 0,205.395 H 567.733 V 0 H 0 Z"
         id="path1667" /></clipPath></defs><sodipodi:namedview
     id="namedview1657"
     pagecolor="#ffffff"
     bordercolor="#666666"
     borderopacity="1.0"
     inkscape:pageshadow="2"
     inkscape:pageopacity="0.0"
     inkscape:pagecheckerboard="0"
     showgrid="false"
     inkscape:zoom="1.2526533"
     inkscape:cx="331.29677"
     inkscape:cy="38.717816"
     inkscape:window-width="1920"
     inkscape:window-height="1011"
     inkscape:window-x="1920"
     inkscape:window-y="0"
     inkscape:window-maximized="1"
     inkscape:current-layer="g1661" /><g
     id="g1661"
     inkscape:groupmode="layer"
     inkscape:label="logo-la-belle-idee"
     transform="matrix(1.3333333,0,0,-1.3333333,0,273.86)"><g
       id="g1663"><g
         id="g1665"
         clip-path="url(#clipPath1669)"><g
           id="g1671"
           transform="translate(149.3611,72.8814)"><path
             d="M 0,0 1.116,-1.24 3.059,-1.736 C 2.811,-3.555 2.535,-5.043 2.232,-6.2 1.929,-7.357 1.433,-8.364 0.744,-9.218 l -1.86,1.074 c 0.358,0.799 0.634,1.564 0.827,2.295 0.192,0.73 0.303,1.495 0.331,2.294 -0.993,-0.799 -1.854,-1.751 -2.584,-2.852 -0.73,-1.103 -1.337,-2.233 -1.819,-3.39 -0.482,-1.157 -0.841,-2.28 -1.075,-3.369 -0.234,-1.089 -0.351,-2.046 -0.351,-2.873 l 1.364,-0.826 c 0.275,0.137 0.751,0.392 1.426,0.764 0.675,0.372 1.412,0.806 2.212,1.302 0.799,0.496 1.584,1.006 2.356,1.529 0.771,0.524 1.391,1.006 1.86,1.448 l 1.902,-1.861 c -0.359,-0.33 -0.841,-0.716 -1.447,-1.157 -0.607,-0.441 -1.261,-0.903 -1.964,-1.385 -0.702,-0.482 -1.42,-0.958 -2.149,-1.425 -0.731,-0.47 -1.406,-0.89 -2.026,-1.262 -0.62,-0.371 -1.157,-0.689 -1.612,-0.95 -0.455,-0.262 -0.751,-0.435 -0.889,-0.517 -0.523,0.221 -1.047,0.558 -1.571,1.013 -0.523,0.454 -0.991,0.923 -1.405,1.405 -0.414,0.482 -0.751,0.951 -1.013,1.405 -0.262,0.455 -0.392,0.792 -0.392,1.013 0,0.331 0.069,0.868 0.206,1.612 0.138,0.744 0.352,1.606 0.641,2.584 0.289,0.978 0.675,2.019 1.158,3.121 0.481,1.102 1.06,2.17 1.735,3.204 0.676,1.033 1.461,1.998 2.357,2.893 C -2.143,-1.233 -1.13,-0.523 0,0"
             style="fill:#1d1d1b;fill-opacity:1;fill-rule:nonzero;stroke:none"
             id="path1673" /></g><g
           id="g1675"
           transform="translate(176.6018,58.6207)"><path
             d="m 0,0 -7.11,-6.077 -4.547,1.199 1.447,5.456 c -2.48,-3.362 -5.319,-5.58 -8.516,-6.655 l -1.86,1.943 4.754,17.362 3.266,-0.869 L -16.7,-2.15 c 0.799,0.633 1.564,1.316 2.294,2.046 0.73,0.73 1.453,1.495 2.17,2.294 0.716,0.799 1.35,1.537 1.902,2.212 0.551,0.675 1.033,1.287 1.447,1.839 l 1.529,6.697 2.687,-0.579 -3.307,-15.46 0.166,-0.083 6.076,5.209 z"
             style="fill:#1d1d1b;fill-opacity:1;fill-rule:nonzero;stroke:none"
             id="path1677" /></g><g
           id="g1679"
           transform="translate(185.9856,75.0728)"><path
             d="m 0,0 -2.439,1.529 1.777,6.697 2.729,-1.819 z m 3.596,-16.576 -7.234,-5.581 -4.133,0.868 c 0.275,1.268 0.599,2.708 0.971,4.319 0.372,1.613 0.806,3.493 1.302,5.643 0.936,4.161 1.598,6.821 1.984,7.978 l 2.439,-1.86 -3.39,-13.972 0.166,-0.083 6.035,4.837 z"
             style="fill:#1d1d1b;fill-opacity:1;fill-rule:nonzero;stroke:none"
             id="path1681" /></g><g
           id="g1683"
           transform="translate(199.262,72.5094)"><path
             d="M 0,0 C 0.523,0.055 1.088,0.021 1.695,-0.104 2.301,-0.228 2.894,-0.399 3.472,-0.62 4.051,-0.841 4.588,-1.089 5.084,-1.364 5.581,-1.64 5.966,-1.929 6.242,-2.232 l -0.909,-3.1 c -0.387,0.33 -0.842,0.646 -1.365,0.95 -0.524,0.303 -1.074,0.559 -1.653,0.765 -0.579,0.207 -1.151,0.379 -1.716,0.516 -0.565,0.138 -1.081,0.207 -1.55,0.207 L -1.075,-3.39 c 0.275,-1.13 0.647,-2.232 1.116,-3.306 0.468,-1.075 0.93,-2.088 1.385,-3.038 0.455,-0.952 0.854,-1.82 1.199,-2.605 0.344,-0.785 0.53,-1.468 0.558,-2.046 0.055,-0.854 -0.097,-1.612 -0.455,-2.274 -0.358,-0.661 -0.799,-1.219 -1.323,-1.674 -0.524,-0.454 -1.068,-0.799 -1.633,-1.033 -0.564,-0.235 -1.026,-0.365 -1.384,-0.393 -0.359,-0.027 -0.841,0.152 -1.447,0.537 -0.607,0.387 -1.24,0.875 -1.901,1.468 -0.662,0.592 -1.31,1.254 -1.943,1.984 -0.634,0.73 -1.158,1.44 -1.571,2.129 l 1.736,1.86 c 0.441,-0.441 0.889,-0.937 1.343,-1.489 0.455,-0.55 0.944,-1.088 1.468,-1.611 0.523,-0.524 1.088,-1.013 1.695,-1.468 0.606,-0.455 1.281,-0.82 2.025,-1.095 l 0.331,0.124 c -0.056,0.992 -0.255,1.957 -0.6,2.893 -0.344,0.937 -0.737,1.923 -1.178,2.956 -0.441,1.033 -0.903,2.157 -1.385,3.369 -0.482,1.212 -0.902,2.577 -1.26,4.092 -0.083,0.359 0.027,0.765 0.331,1.22 0.302,0.455 0.695,0.882 1.177,1.281 0.482,0.4 0.986,0.744 1.509,1.033 C -0.758,-0.186 -0.331,-0.027 0,0"
             style="fill:#1d1d1b;fill-opacity:1;fill-rule:nonzero;stroke:none"
             id="path1685" /></g><g
           id="g1687"
           transform="translate(215.3757,75.0728)"><path
             d="m 0,0 -2.439,1.529 1.777,6.697 2.729,-1.819 z m 3.596,-16.576 -7.234,-5.581 -4.133,0.868 c 0.275,1.268 0.599,2.708 0.971,4.319 0.372,1.613 0.806,3.493 1.302,5.643 0.936,4.161 1.598,6.821 1.984,7.978 l 2.439,-1.86 -3.39,-13.972 0.166,-0.083 6.035,4.837 z"
             style="fill:#1d1d1b;fill-opacity:1;fill-rule:nonzero;stroke:none"
             id="path1689" /></g><g
           id="g1691"
           transform="translate(240.8391,58.7857)"><path
             d="m 0,0 -6.821,-5.539 -4.464,0.826 3.886,14.51 c -1.406,-1.24 -2.805,-2.57 -4.196,-3.989 -1.392,-1.42 -2.818,-2.929 -4.279,-4.527 l -1.777,-6.696 -2.893,0.578 c 0.44,1.626 0.84,3.101 1.198,4.424 0.358,1.322 0.689,2.493 0.992,3.514 0.221,1.046 0.448,1.99 0.682,2.831 0.234,0.84 0.434,1.591 0.6,2.253 l 1.198,4.712 3.018,-0.538 -1.571,-5.374 0.62,0.538 c 0.993,1.047 1.908,1.977 2.749,2.79 0.841,0.813 1.646,1.495 2.418,2.046 1.241,0.882 2.384,1.324 3.432,1.324 l 1.322,-1.861 -3.927,-14.385 0.166,-0.083 5.746,4.506 z"
             style="fill:#1d1d1b;fill-opacity:1;fill-rule:nonzero;stroke:none"
             id="path1693" /></g><g
           id="g1695"
           transform="translate(247.5354,62.1754)"><path
             d="m 0,0 c 0.662,0.192 1.302,0.481 1.922,0.868 0.62,0.386 1.179,0.868 1.675,1.446 0.496,0.58 0.909,1.261 1.24,2.047 0.33,0.785 0.537,1.66 0.62,2.624 L 5.167,7.357 C 3.955,6.476 2.921,5.38 2.067,4.071 1.212,2.763 0.523,1.405 0,0 M 4.589,10.458 8.227,6.944 C 8.227,5.566 7.923,4.312 7.317,3.183 6.71,2.053 5.959,1.074 5.064,0.248 4.168,-0.579 3.197,-1.22 2.15,-1.674 1.102,-2.129 0.138,-2.384 -0.744,-2.439 -0.909,-3.073 -1.02,-3.604 -1.075,-4.03 -1.13,-4.458 -1.157,-4.947 -1.157,-5.498 l 0.992,-0.909 c 0.275,0.137 0.771,0.406 1.488,0.805 0.717,0.4 1.494,0.862 2.336,1.385 0.84,0.524 1.667,1.061 2.48,1.613 0.812,0.55 1.453,1.046 1.922,1.488 L 9.797,-3.101 C 9.466,-3.404 8.998,-3.776 8.392,-4.217 7.785,-4.657 7.124,-5.119 6.408,-5.602 5.69,-6.084 4.954,-6.56 4.196,-7.027 3.438,-7.496 2.729,-7.931 2.067,-8.33 1.406,-8.729 0.84,-9.066 0.372,-9.343 -0.097,-9.617 -0.399,-9.797 -0.537,-9.88 c -0.414,0.221 -0.855,0.572 -1.323,1.055 -0.469,0.481 -0.896,0.977 -1.282,1.487 -0.386,0.51 -0.702,1.006 -0.95,1.488 -0.248,0.483 -0.372,0.833 -0.372,1.055 0,0.33 0.068,0.86 0.207,1.591 0.137,0.73 0.351,1.571 0.64,2.521 0.289,0.952 0.668,1.964 1.137,3.039 0.468,1.075 1.04,2.122 1.715,3.142 0.676,1.019 1.454,1.97 2.336,2.852 0.882,0.881 1.887,1.585 3.018,2.108"
             style="fill:#1d1d1b;fill-opacity:1;fill-rule:nonzero;stroke:none"
             id="path1697" /></g><g
           id="g1699"
           transform="translate(276.4626,69.1607)"><path
             d="m 0,0 h 5.539 l -0.579,-2.521 -5.373,0.083 -4.134,-20.751 -3.307,1.157 c 0.221,1.13 0.62,2.9 1.199,5.311 0.578,2.411 1.322,5.519 2.232,9.323 l 1.033,4.877 h -3.1 l 0.289,2.439 2.935,0.041 c 0.469,2.59 0.869,4.733 1.199,6.428 0.331,1.695 0.613,3.059 0.848,4.092 0.234,1.034 0.419,1.805 0.558,2.315 0.137,0.51 0.248,0.889 0.33,1.137 0.248,0.303 0.621,0.599 1.117,0.889 0.496,0.289 1.033,0.551 1.611,0.785 0.58,0.234 1.151,0.427 1.716,0.579 0.565,0.151 1.054,0.227 1.468,0.227 L 8.268,13.518 C 8.268,12.911 8.17,12.153 7.978,11.244 7.786,10.335 7.537,9.404 7.234,8.454 6.931,7.503 6.593,6.579 6.221,5.685 5.849,4.788 5.498,4.023 5.167,3.39 l -1.86,1.034 c 0.551,1.24 0.957,2.479 1.219,3.72 0.262,1.24 0.393,2.521 0.393,3.844 0,0.551 -0.014,0.957 -0.041,1.22 C 4.85,13.47 4.809,13.696 4.754,13.89 4.368,13.89 4.016,13.752 3.7,13.477 3.383,13.2 3.093,12.836 2.832,12.381 2.569,11.926 2.342,11.389 2.149,10.769 1.957,10.148 1.805,9.48 1.695,8.764 Z"
             style="fill:#1d1d1b;fill-opacity:1;fill-rule:nonzero;stroke:none"
             id="path1701" /></g><g
           id="g1703"
           transform="translate(295.2296,63.4156)"><path
             d="m 0,0 0.537,5.167 c -1.35,-1.24 -2.701,-2.57 -4.051,-3.989 -1.35,-1.42 -2.728,-2.929 -4.133,-4.527 l -1.53,-6.696 -2.894,0.578 c 0.386,1.626 0.738,3.101 1.054,4.424 0.317,1.322 0.6,2.493 0.848,3.514 0.192,1.047 0.393,1.99 0.6,2.831 0.207,0.841 0.378,1.592 0.516,2.253 l 1.033,4.713 3.018,-0.539 -1.364,-5.374 0.579,0.539 c 0.964,1.046 1.853,1.976 2.666,2.79 0.812,0.812 1.592,1.494 2.336,2.045 1.212,0.882 2.342,1.324 3.389,1.324 L 3.969,7.192 3.307,-0.496 Z"
             style="fill:#1d1d1b;fill-opacity:1;fill-rule:nonzero;stroke:none"
             id="path1705" /></g><g
           id="g1707"
           transform="translate(311.211,73.2945)"><path
             d="M 0,0 2.067,-2.19 C 0.744,-2.852 -0.51,-3.769 -1.694,-4.939 -2.88,-6.111 -3.927,-7.364 -4.836,-8.701 c -0.91,-1.337 -1.627,-2.695 -2.149,-4.071 -0.525,-1.379 -0.786,-2.605 -0.786,-3.68 l 0.372,-0.578 c 0.44,0.192 0.971,0.509 1.591,0.95 0.621,0.44 1.234,0.931 1.84,1.468 0.606,0.537 1.178,1.075 1.715,1.612 0.538,0.537 0.944,0.972 1.22,1.302 l 2.397,7.978 0.331,0.909 2.811,-1.86 -3.721,-12.814 h 0.29 l 5.787,4.837 1.613,-2.026 -6.78,-5.788 -4.133,0.951 0.95,3.803 c -0.276,-0.413 -0.697,-0.861 -1.261,-1.343 -0.564,-0.482 -1.157,-0.951 -1.777,-1.406 -0.62,-0.454 -1.22,-0.861 -1.798,-1.219 -0.579,-0.358 -1.033,-0.62 -1.364,-0.786 -0.442,0.222 -0.862,0.552 -1.261,0.992 -0.401,0.441 -0.751,0.903 -1.055,1.385 -0.303,0.482 -0.551,0.951 -0.743,1.406 -0.193,0.454 -0.29,0.806 -0.29,1.054 0,0.331 0.118,0.868 0.351,1.612 0.234,0.744 0.565,1.605 0.993,2.583 0.426,0.979 0.957,2.019 1.591,3.121 0.633,1.103 1.365,2.184 2.191,3.246 0.827,1.06 1.736,2.039 2.728,2.934 C -2.19,-1.233 -1.13,-0.523 0,0"
             style="fill:#1d1d1b;fill-opacity:1;fill-rule:nonzero;stroke:none"
             id="path1709" /></g><g
           id="g1711"
           transform="translate(341.5098,58.7857)"><path
             d="m 0,0 -6.819,-5.539 -4.465,0.826 3.886,14.51 c -1.406,-1.24 -2.805,-2.57 -4.196,-3.989 -1.391,-1.42 -2.818,-2.929 -4.278,-4.527 l -1.777,-6.696 -2.894,0.578 c 0.44,1.626 0.841,3.101 1.198,4.424 0.358,1.322 0.689,2.493 0.992,3.514 0.221,1.046 0.448,1.99 0.682,2.831 0.234,0.84 0.435,1.591 0.6,2.253 l 1.199,4.712 3.018,-0.538 -1.572,-5.374 0.62,0.538 c 0.993,1.047 1.909,1.977 2.749,2.79 0.841,0.813 1.647,1.495 2.418,2.046 1.241,0.882 2.384,1.324 3.432,1.324 L -3.885,11.822 -7.812,-2.563 -7.646,-2.646 -1.9,1.86 Z"
             style="fill:#1d1d1b;fill-opacity:1;fill-rule:nonzero;stroke:none"
             id="path1713" /></g><g
           id="g1715"
           transform="translate(352.3819,54.6109)"><path
             d="m 0,0 -2.852,-5.168 c 1.212,-0.605 1.943,-1.253 2.191,-1.942 0.248,-0.689 0.192,-1.336 -0.165,-1.944 -0.359,-0.605 -0.924,-1.115 -1.695,-1.529 -0.772,-0.413 -1.578,-0.641 -2.418,-0.682 -0.841,-0.041 -1.633,0.138 -2.377,0.537 -0.745,0.401 -1.241,1.124 -1.489,2.17 l 2.316,0.993 c 0.302,-0.579 0.605,-0.964 0.909,-1.158 0.303,-0.192 0.585,-0.248 0.848,-0.165 0.261,0.082 0.467,0.262 0.62,0.537 0.15,0.276 0.213,0.593 0.185,0.952 -0.027,0.358 -0.165,0.71 -0.413,1.053 -0.248,0.345 -0.647,0.627 -1.199,0.848 l 1.612,3.596 -0.372,-0.206 c -0.523,0.22 -1.048,0.557 -1.57,1.012 -0.525,0.454 -0.992,0.923 -1.405,1.406 -0.414,0.481 -0.752,0.951 -1.014,1.405 -0.262,0.455 -0.393,0.792 -0.393,1.013 0,0.331 0.07,0.868 0.207,1.612 0.138,0.744 0.352,1.605 0.641,2.584 0.289,0.977 0.675,2.018 1.157,3.121 0.483,1.101 1.061,2.17 1.737,3.203 0.674,1.033 1.46,1.998 2.356,2.894 0.896,0.895 1.908,1.605 3.038,2.129 L 1.571,17.03 3.514,16.534 C 3.267,14.716 2.99,13.228 2.688,12.07 2.384,10.913 1.888,9.906 1.199,9.053 l -1.86,1.074 c 0.358,0.799 0.634,1.563 0.827,2.295 0.192,0.729 0.303,1.494 0.33,2.294 -0.991,-0.8 -1.853,-1.751 -2.583,-2.853 C -2.817,10.761 -3.424,9.631 -3.906,8.474 -4.389,7.316 -4.747,6.193 -4.98,5.104 -5.215,4.016 -5.332,3.059 -5.332,2.231 l 1.364,-0.826 c 0.276,0.138 0.75,0.393 1.426,0.765 0.675,0.372 1.412,0.806 2.212,1.302 0.799,0.496 1.584,1.006 2.356,1.529 0.771,0.523 1.391,1.006 1.86,1.447 L 5.788,4.588 C 5.457,4.312 5.044,3.981 4.548,3.596 4.052,3.21 3.507,2.817 2.915,2.418 2.322,2.018 1.709,1.611 1.075,1.198 0.441,0.785 -0.179,0.385 -0.785,0 Z"
             style="fill:#1d1d1b;fill-opacity:1;fill-rule:nonzero;stroke:none"
             id="path1717" /></g><g
           id="g1719"
           transform="translate(371.2735,73.2945)"><path
             d="m 0,0 2.066,-2.19 c -1.322,-0.662 -2.577,-1.579 -3.761,-2.749 -1.185,-1.172 -2.232,-2.425 -3.142,-3.762 -0.909,-1.337 -1.626,-2.695 -2.149,-4.071 -0.524,-1.379 -0.785,-2.605 -0.785,-3.68 l 0.372,-0.578 c 0.44,0.192 0.971,0.509 1.591,0.95 0.621,0.44 1.233,0.931 1.839,1.468 0.607,0.537 1.179,1.075 1.716,1.612 0.537,0.537 0.943,0.972 1.22,1.302 l 2.397,7.978 0.33,0.909 2.812,-1.86 -3.721,-12.814 h 0.289 l 5.788,4.837 1.612,-2.026 -6.78,-5.788 -4.132,0.951 0.95,3.803 c -0.276,-0.413 -0.697,-0.861 -1.261,-1.343 -0.565,-0.482 -1.157,-0.951 -1.777,-1.406 -0.62,-0.454 -1.22,-0.861 -1.798,-1.219 -0.579,-0.358 -1.034,-0.62 -1.364,-0.786 -0.442,0.222 -0.863,0.552 -1.261,0.992 -0.401,0.441 -0.752,0.903 -1.055,1.385 -0.304,0.482 -0.552,0.951 -0.744,1.406 -0.192,0.454 -0.289,0.806 -0.289,1.054 0,0.331 0.117,0.868 0.351,1.612 0.234,0.744 0.565,1.605 0.993,2.583 0.426,0.979 0.957,2.019 1.59,3.121 0.634,1.103 1.365,2.184 2.192,3.246 0.826,1.06 1.736,2.039 2.728,2.934 C -2.191,-1.233 -1.131,-0.523 0,0"
             style="fill:#1d1d1b;fill-opacity:1;fill-rule:nonzero;stroke:none"
             id="path1721" /></g><g
           id="g1723"
           transform="translate(389.0889,75.0728)"><path
             d="m 0,0 -2.438,1.529 1.777,6.697 2.728,-1.819 z m 3.597,-16.576 -7.235,-5.581 -4.133,0.868 c 0.276,1.268 0.599,2.708 0.971,4.319 0.372,1.613 0.807,3.493 1.303,5.643 0.936,4.161 1.598,6.821 1.983,7.978 l 2.44,-1.86 -3.39,-13.972 0.165,-0.083 6.035,4.837 z"
             style="fill:#1d1d1b;fill-opacity:1;fill-rule:nonzero;stroke:none"
             id="path1725" /></g><g
           id="g1727"
           transform="translate(402.3653,72.5094)"><path
             d="M 0,0 C 0.523,0.055 1.089,0.021 1.695,-0.104 2.301,-0.228 2.894,-0.399 3.473,-0.62 4.052,-0.841 4.589,-1.089 5.085,-1.364 5.581,-1.64 5.967,-1.929 6.242,-2.232 l -0.909,-3.1 c -0.387,0.33 -0.841,0.646 -1.364,0.95 -0.524,0.303 -1.075,0.559 -1.654,0.765 -0.579,0.207 -1.151,0.379 -1.715,0.516 -0.566,0.138 -1.082,0.207 -1.55,0.207 L -1.074,-3.39 c 0.275,-1.13 0.647,-2.232 1.116,-3.306 0.468,-1.075 0.93,-2.088 1.385,-3.038 0.454,-0.952 0.853,-1.82 1.198,-2.605 0.345,-0.785 0.53,-1.468 0.559,-2.046 0.054,-0.854 -0.097,-1.612 -0.455,-2.274 -0.359,-0.661 -0.8,-1.219 -1.323,-1.674 -0.524,-0.454 -1.068,-0.799 -1.633,-1.033 -0.565,-0.235 -1.027,-0.365 -1.384,-0.393 -0.36,-0.027 -0.842,0.152 -1.448,0.537 -0.606,0.387 -1.24,0.875 -1.901,1.468 -0.661,0.592 -1.31,1.254 -1.943,1.984 -0.633,0.73 -1.158,1.44 -1.571,2.129 l 1.737,1.86 c 0.44,-0.441 0.888,-0.937 1.342,-1.489 0.456,-0.55 0.945,-1.088 1.468,-1.611 0.524,-0.524 1.089,-1.013 1.696,-1.468 0.605,-0.455 1.281,-0.82 2.025,-1.095 l 0.33,0.124 c -0.056,0.992 -0.255,1.957 -0.599,2.893 -0.345,0.937 -0.738,1.923 -1.178,2.956 -0.442,1.033 -0.903,2.157 -1.385,3.369 -0.483,1.212 -0.902,2.577 -1.261,4.092 -0.083,0.359 0.028,0.765 0.331,1.22 0.303,0.455 0.696,0.882 1.178,1.281 0.482,0.4 0.985,0.744 1.509,1.033 C -0.758,-0.186 -0.33,-0.027 0,0"
             style="fill:#1d1d1b;fill-opacity:1;fill-rule:nonzero;stroke:none"
             id="path1729" /></g><g
           id="g1731"
           transform="translate(413.8339,62.1754)"><path
             d="m 0,0 c 0.662,0.192 1.303,0.481 1.923,0.868 0.619,0.386 1.178,0.868 1.674,1.446 0.496,0.58 0.909,1.261 1.24,2.047 0.33,0.785 0.537,1.66 0.62,2.624 L 5.167,7.357 C 3.954,6.476 2.921,5.38 2.067,4.071 1.213,2.763 0.523,1.405 0,0 M 4.589,10.458 8.227,6.944 C 8.227,5.566 7.923,4.312 7.317,3.183 6.71,2.053 5.959,1.074 5.064,0.248 4.168,-0.579 3.196,-1.22 2.149,-1.674 1.103,-2.129 0.138,-2.384 -0.744,-2.439 -0.909,-3.073 -1.02,-3.604 -1.074,-4.03 -1.13,-4.458 -1.157,-4.947 -1.157,-5.498 l 0.992,-0.909 c 0.275,0.137 0.771,0.406 1.488,0.805 0.716,0.4 1.494,0.862 2.335,1.385 0.841,0.524 1.667,1.061 2.481,1.613 0.812,0.55 1.453,1.046 1.922,1.488 L 9.797,-3.101 C 9.467,-3.404 8.997,-3.776 8.392,-4.217 7.785,-4.657 7.124,-5.119 6.407,-5.602 5.69,-6.084 4.953,-6.56 4.196,-7.027 3.438,-7.496 2.729,-7.931 2.067,-8.33 1.405,-8.729 0.841,-9.066 0.372,-9.343 -0.097,-9.617 -0.399,-9.797 -0.537,-9.88 c -0.413,0.221 -0.855,0.572 -1.323,1.055 -0.469,0.481 -0.896,0.977 -1.282,1.487 -0.385,0.51 -0.702,1.006 -0.95,1.488 -0.248,0.483 -0.372,0.833 -0.372,1.055 0,0.33 0.068,0.86 0.206,1.591 0.138,0.73 0.352,1.571 0.641,2.521 0.29,0.952 0.668,1.964 1.137,3.039 0.468,1.075 1.04,2.122 1.715,3.142 0.675,1.019 1.453,1.97 2.336,2.852 0.882,0.881 1.887,1.585 3.018,2.108"
             style="fill:#1d1d1b;fill-opacity:1;fill-rule:nonzero;stroke:none"
             id="path1733" /></g><g
           id="g1735"
           transform="translate(253.8572,119.5062)"><path
             d="m 0,0 v 0.012 h -0.031 v 33.516 l -10.814,-0.021 v -43.955 l 30.757,0.362 -0.015,10.098 H 0"
             style="fill:#1d1d1b;fill-opacity:1;fill-rule:nonzero;stroke:none"
             id="path1737" /></g><g
           id="g1739"
           transform="translate(292.5644,120.3765)"><path
             d="m 0,0 v 0.012 h -0.031 v 32.732 l -10.814,-0.02 v -43.626 l 30.757,-0.416 -0.015,10.913 -19.928,0.417"
             style="fill:#1d1d1b;fill-opacity:1;fill-rule:nonzero;stroke:none"
             id="path1741" /></g><g
           id="g1743"
           transform="translate(194.8189,121.377)"><path
             d="m 0,0 c 0,4.432 -1.428,8.158 -4.284,11.174 0.923,2.057 1.386,4.204 1.386,6.444 0,3.839 -1.229,7.14 -3.686,9.906 -2.457,2.764 -5.428,4.147 -8.914,4.147 l -20.007,0.073 V -17.22 l 21.582,1.796 c 3.899,0.345 7.097,1.53 9.828,4.593 C -1.365,-7.77 0,-4.159 0,0 m -13.797,17.618 c 0,-1.417 -0.567,-2.125 -1.701,-2.125 h -9.009 v 4.319 h 9.009 c 1.134,0 1.701,-0.732 1.701,-2.194 M -10.899,0 c 0,-1.006 -0.284,-1.851 -0.851,-2.536 -0.567,-0.686 -1.095,-0.953 -2.127,-1.191 l -10.63,-1.587 v 8.947 h 10.584 c 0.882,0 1.606,-0.354 2.173,-1.062 0.567,-0.709 0.851,-1.566 0.851,-2.571"
             style="fill:#1d1d1b;fill-opacity:1;fill-rule:nonzero;stroke:none"
             id="path1745" /></g><g
           id="g1747"
           transform="translate(234.0142,142.311)"><path
             d="m 0,0 h -20.391 v -4.992 h 14.882 l -0.015,-10.902 h -14.867 l 0.013,-6.749 v -0.012 l 20.403,0.012 0.03,-10.942 -31.3,-1.355 V 10.862 H 0.017 Z"
             style="fill:#1d1d1b;fill-opacity:1;fill-rule:nonzero;stroke:none"
             id="path1749" /></g><g
           id="g1751"
           transform="translate(332.2724,119.7533)"><path
             d="m 0,0 20.416,-1.2 0.03,-10.874 -31.3,1.2 V 33.281 H 20.408 L 20.391,22.487 H 0 V 17.526 L 14.882,17.168 14.867,6.334 0,6.692 V 0 h 0.013 v -0.012"
             style="fill:#1d1d1b;fill-opacity:1;fill-rule:nonzero;stroke:none"
             id="path1753" /></g><g
           id="g1755"
           transform="translate(393.4554,153.1479)"><path
             d="m 0,0 v -48.217 l -10.715,0.844 v 47.365 z"
             style="fill:#1d1d1b;fill-opacity:1;fill-rule:nonzero;stroke:none"
             id="path1757" /></g><g
           id="g1759"
           transform="translate(55.5533,100.0365)"><path
             d="m 0,0 -0.01,53.111 h -10.903 v -67.465 l 27.978,6.165 v 11.7 z"
             style="fill:#1d1d1b;fill-opacity:1;fill-rule:nonzero;stroke:none"
             id="path1761" /></g><g
           id="g1763"
           transform="translate(107.3841,153.2941)"><path
             d="m 0,0 c -9.359,-17.212 -18.267,-35.61 -26.845,-53.225 l 8.912,-5.364 4.549,9.277 24.287,3.326 3.785,-7.728 9.463,6.811 z m -7.014,-36.481 6.77,13.963 5.806,-12.318 z"
             style="fill:#1d1d1b;fill-opacity:1;fill-rule:nonzero;stroke:none"
             id="path1765" /></g><g
           id="g1767"
           transform="translate(442.7224,126.2659)"><path
             d="m 0,0 c -0.569,7.507 -2.804,13.93 -7.256,19.142 -4.374,5.119 -9.68,7.652 -15.378,7.74 h -17.329 v -49.017 l 19.285,-1.906 c 6.483,-0.718 11.642,1.844 15.604,6.474 C -1.111,-12.937 0.569,-7.508 0,0 m -28.894,14.262 v 0.003 c 0.041,-0.001 0.07,-0.002 0.111,-0.003 h -0.111 c 10e-4,-0.031 10e-4,-0.057 0.002,-0.087 1.462,-0.03 5.156,-0.061 6.522,-0.102 2.909,-0.088 5.395,-1.406 7.498,-4 2.104,-2.596 3.284,-5.722 3.508,-9.318 0.222,-3.549 -0.569,-6.522 -2.422,-8.87 -1.855,-2.353 -4.348,-3.364 -7.461,-3.098 -2.747,0.233 -4.128,0.347 -6.904,0.57 v 0.003 l -0.701,0.059 V 12.83 c -0.013,0.453 -0.026,0.877 -0.04,1.345"
             style="fill:#1d1d1b;fill-opacity:1;fill-rule:nonzero;stroke:none"
             id="path1769" /></g><g
           id="g1771"
           transform="translate(480.6812,142.2401)"><path
             d="m 0,0 h -20.391 v -11.906 l 14.882,-0.992 -0.014,-10.834 -14.868,0.992 v -11.667 l 20.416,-3.16 0.031,-10.874 -31.301,5.144 V 10.794 H 0.017 Z"
             style="fill:#1d1d1b;fill-opacity:1;fill-rule:nonzero;stroke:none"
             id="path1773" /></g><g
           id="g1775"
           transform="translate(520.1174,142.2404)"><path
             d="m 0,0 h -20.391 v -14.882 l 14.882,-1.985 -0.014,-10.833 -14.868,1.984 v -15.423 l 20.458,-4.357 0.032,-11.12 -31.344,6.587 V 10.794 H 0.017 Z"
             style="fill:#1d1d1b;fill-opacity:1;fill-rule:nonzero;stroke:none"
             id="path1777" /></g><g
           id="g1779"
           transform="translate(471.9584,170.2959)"><path
             d="m 0,0 -17.444,-6.883 1.945,-6.676 17.912,4.905 z"
             style="fill:#1d1d1b;fill-opacity:1;fill-rule:nonzero;stroke:none"
             id="path1781" /></g></g></g></g></svg>
